<?xml version="1.0" encoding="utf-8"?>
<!DOCTYPE svg PUBLIC "-//W3C//DTD SVG 1.1//EN" "http://www.w3.org/Graphics/SVG/1.1/DTD/svg11.dtd">
<svg version="1.1" id="Layer_1" xmlns="http://www.w3.org/2000/svg" xmlns:xlink="http://www.w3.org/1999/xlink" x="0px" y="0px"
	 width="80px" height="39px" viewBox="0 0 298.235 150.494" enable-background="new 0 0 298.235 150.494"
	 xml:space="preserve">
<g>
	<g>
		<g>
			<path fill="#010101" d="M44.604,27.332c0,5.022-3.024,9.942-7.654,10.367c-1.701,0.156-4.536-0.721-5.576-3.277
				c5.67-2.888,6.143-12.024-1.229-11.341c-8.221,0.762-16.82,19.715-16.82,39.48c0,11.165,3.779,20.096,13.324,19.245
				c5.008-0.446,10.678-2.373,16.915-6.435c1.04,0.381,1.606,1.182,1.606,2.13c0,0.664-0.189,1.438-0.851,2.161
				c-6.709,7.322-15.024,10.71-22.963,11.414C6.521,92.392,0,79.931,0,65.373c0-24.098,14.175-47.244,31.468-48.852
				C40.635,15.668,44.604,21.552,44.604,27.332z"/>
			<path fill="#010101" d="M76.071,40.278c1.606-2.044,4.063-3.125,6.426-3.34c1.7-0.156,3.308,0.172,4.441,0.828l-6.614,32.036
				c-1.135,5.42,0.377,6.994,2.834,6.774c3.496-0.312,7.561-3.05,9.922-5.637c1.04,0.383,1.607,1.187,1.607,2.138
				c0,0.666-0.283,1.451-0.851,2.168c-4.441,5.43-11.245,10.402-16.349,10.854c-4.441,0.394-8.883-1.299-8.788-8.803
				c-3.969,5.95-8.978,10.378-14.363,10.855c-9.828,0.871-11.813-8.804-11.813-14.868c0-16.583,10.679-34.043,23.813-35.246
				C70.59,37.649,73.709,38.407,76.071,40.278z M74.182,45.197c-1.607-0.423-3.024-0.484-4.441-0.355
				c-11.435,1.042-15.498,16.391-15.498,26.728c0,4.743,2.174,6.634,5.104,6.372c3.023-0.27,6.992-3.091,9.543-6.83L74.182,45.197z"
				/>
			<path fill="#010101" d="M108.484,44.926c3.779-8.049,7.843-11.084,12.189-11.482c4.536-0.415,6.898,2.988,6.898,6.891
				c0,4.285-2.646,9.189-7.56,9.634c-0.851,0.077-1.891,0.076-2.741-0.132c0.662-0.631,1.04-1.902,1.04-3.044
				c0-1.332-0.944-2.293-2.93-2.112c-3.118,0.283-7.56,4.967-12.379,27.369l-1.134,5.9c-0.945,4.458-4.536,6.391-7.938,6.692
				c-1.701,0.151-3.309-0.18-4.441-0.841l7.748-37.188c0.283-1.546-0.094-2.367-0.945-2.29c-0.473,0.043-1.039,0.475-1.89,1.312
				c-1.228-0.648-1.89-3.533,0-5.225c3.213-2.861,6.615-5.168,10.584-5.531c3.401-0.311,5.292,1.134,4.536,4.816L108.484,44.926z"/>
			<path fill="#010101" d="M144.676,37.251l-5.575,27.282c-1.134,5.437,0.378,7.018,2.835,6.799c3.496-0.312,7.56-3.06,9.922-5.655
				c1.04,0.385,1.606,1.191,1.606,2.145c0,0.669-0.283,1.457-0.851,2.176c-4.441,5.45-11.623,10.471-17.954,11.032
				c-5.765,0.511-9.545-2.771-7.371-13.439l6.048-29.307l-4.725,0.431c-0.473-3.003,1.039-5.617,3.969-5.885l1.89-0.173l1.701-7.966
				c0.945-4.47,4.536-6.419,7.938-6.733c1.701-0.157,3.308,0.171,4.441,0.829l-2.646,12.824l6.898-0.631
				c0.473,3.007-1.04,5.625-3.969,5.892L144.676,37.251z"/>
			<path fill="#010101" d="M162.819,63.171c0.944,5.067,4.441,6.666,8.788,6.278c6.804-0.607,15.498-6.254,19.562-12.066
				c2.456-0.698,3.401,1.224,2.362,3.038c-6.521,10.234-17.482,16.94-26.648,17.752C158,78.962,150.818,74.26,150.818,62.53
				c0-12.396,8.126-32.969,23.719-34.396c8.599-0.787,10.772,3.885,10.772,8.184C185.31,44.438,181.058,51.317,162.819,63.171z
				 M162.536,59.093c9.166-6.646,15.402-13.893,15.402-20.099c0-2.196-1.134-3.621-2.74-3.475
				C165.843,36.372,162.819,52.39,162.536,59.093z"/>
			<path fill="#010101" d="M199.768,63.4c3.686-0.329,6.521,2.383,6.332,6.131c-0.284,3.758-3.308,6.99-6.993,7.317
				c-3.686,0.326-6.521-2.386-6.236-6.14C193.059,66.962,196.083,63.729,199.768,63.4z"/>
			<path fill="#010101" d="M222.731,15.202c0.567-2.638-1.229-3.047-2.74-1.088c-1.322-1.123-1.417-2.07-1.417-2.837
				c0-2.201,6.804-7.426,11.906-7.899c3.402-0.315,5.292,1.138,4.536,4.849l-4.441,22.631c4.819-6.188,9.166-8.31,12.946-8.656
				c7.276-0.666,11.813,4.674,11.813,13.883c0,16.308-15.593,35.628-29.673,36.877c-10.3,0.914-12.852-10.057-9.733-25.075
				L222.731,15.202z M238.324,32.356c-3.024,0.275-6.71,2.909-9.355,6.597c-2.552,11.531-2.93,15.109-2.93,17.312
				c0,5.458,2.174,6.604,4.631,6.385c6.709-0.599,12.757-12.161,12.757-23.378C243.427,34,241.253,32.089,238.324,32.356z"/>
			<path fill="#010101" d="M262.799,31.569c0.378-1.57-0.095-2.391-0.945-2.313c-0.473,0.043-1.039,0.479-1.89,1.323
				c-1.229-0.656-1.891-3.569,0-5.276c3.213-2.886,6.614-5.212,10.583-5.575c3.402-0.312,5.292,1.149,4.536,4.866l-5.858,28.183
				c-0.662,3.036,0.095,5.271,3.213,4.993c2.74-0.245,5.103-1.799,7.276-4.106l6.143-29.284c0.944-4.505,4.535-6.469,7.938-6.78
				c1.701-0.156,3.308,0.178,4.441,0.843l-8.032,38.799c-0.378,1.666-0.756,3.431-1.134,5.194c1.606-0.432,2.929-0.646,3.969-0.738
				c3.874-0.345,5.575,3.352,4.347,7.211c-3.024-0.406-6.426-0.104-9.922,0.589c-4.348,17.49-11.529,35.213-27.499,36.596
				c-5.292,0.458-10.206-2.954-10.206-10.911c0-11.892,14.741-22.402,27.499-28.238c0.566-2.165,1.134-4.327,1.795-6.691
				c-3.685,5.032-7.938,8.581-12.662,9c-9.355,0.83-9.923-8.521-8.032-17.612L262.799,31.569z M275.272,73.846
				c-10.395,5.142-19.089,13.007-19.089,19.53c0,3.356,2.646,4.278,3.874,4.171C266.578,96.979,270.453,90.017,275.272,73.846z"/>
		</g>
	</g>
	<g>
		<path fill-rule="evenodd" clip-rule="evenodd" fill="#ED2224" d="M70.495,104.626c1.368-3.161,3.95-4.612,6.937-5.503
			c5.424-1.619,10.343-0.942,14.816,1.862c2.479,1.555,4.719,3.406,7.049,5.154c13.871,10.425,29.732,15.832,48.031,14.624
			c11.682-0.768,22.281-5.119,31.799-13.11c8.088-6.805,14.586-5.627,19.211,3.127c0.654,1.238,1.225,2.557,1.622,3.922
			c1.022,3.515,0.392,6.657-2.722,9.418c-6.501,5.754-13.84,9.892-21.619,13.065c-29.277,11.89-57.088,5.347-76.907-14.866
			c-2.851-2.896-5.076-6.353-7.452-9.66c-2.02-2.81-4.141-5.528-6.79-7.764c-3.64-3.068-7.638-3.855-12.281-0.805
			C71.752,104.378,71.316,104.934,70.495,104.626z M125.451,121.054c-0.043,0.151-0.087,0.302-0.131,0.453
			c2.08,0.565,4.133,1.219,6.242,1.688c18.91,4.22,36.847,1.393,53.154-12.725c2.599-2.255,5.305-3.84,8.695-3.547
			c-3.248-1.825-6.409-1.382-9.5,1.021c-1.598,1.242-3.153,2.545-4.717,3.834c-4.952,4.082-10.441,7.142-16.346,9.008
			c-11.879,3.746-23.583,3.873-35.02,0.8C127.049,121.378,126.244,121.231,125.451,121.054z"/>
	</g>
	<g>
		<path fill-rule="evenodd" clip-rule="evenodd" fill="#0F8140" d="M201.334,117.017c-0.344-8.093-2.275-14.285-11.25-15.068
			c8.762-2.126,16.459-5.778,23.326-11.711c5.4-4.682,10.508-9.781,16.461-13.703c0.943-0.623,1.971-1.073,2.916-1.697
			c2.205-1.453,2.748-0.3,3.098,1.499c0.188,0.978,0.308,1.553-0.945,2.122c-11.364,5.149-19.281,14.303-26,24.743
			C206.178,107.48,203.908,111.992,201.334,117.017z"/>
	</g>
</g>
</svg>
